<svg width="246" height="19" viewBox="0 0 246 19" fill="none" xmlns="http://www.w3.org/2000/svg">
<path d="M10.84 1.22C11.12 1.07333 11.4133 1.04667 11.72 1.14C12.0267 1.23333 12.2533 1.42 12.4 1.7C12.5467 1.96667 12.7667 2.38 13.06 2.94C13.1933 3.22 13.2067 3.50667 13.1 3.8C12.9933 4.09333 12.8 4.30667 12.52 4.44C12.2267 4.57333 11.9333 4.58667 11.64 4.48C11.3467 4.37333 11.1267 4.18 10.98 3.9C10.9133 3.78 10.7 3.38667 10.34 2.72C10.1933 2.45333 10.1667 2.17333 10.26 1.88C10.3533 1.58667 10.54 1.36667 10.82 1.22H10.84ZM15.6 0.979999C16.04 1.82 16.2667 2.25333 16.28 2.28C16.4267 2.56 16.4467 2.84667 16.34 3.14C16.2467 3.43333 16.06 3.64667 15.78 3.78L15.72 3.82C15.44 3.95333 15.1467 3.97333 14.84 3.88C14.5467 3.77333 14.3267 3.58 14.18 3.3C14.1133 3.16667 14.0067 2.96 13.86 2.68C13.7133 2.4 13.6 2.19333 13.52 2.06C13.3733 1.79333 13.34 1.50667 13.42 1.2C13.5133 0.893333 13.7 0.673333 13.98 0.54L14.04 0.519999C14.32 0.373332 14.6133 0.346666 14.92 0.439999C15.2267 0.519999 15.4533 0.699999 15.6 0.979999ZM14.54 15.52L14.66 16.68C14.7 17 14.6267 17.28 14.44 17.52C14.2533 17.7733 14 17.9267 13.68 17.98C11.8133 18.26 9.78667 18.4 7.6 18.4C5.04 18.4 3.16667 17.98 1.98 17.14C0.793334 16.3 0.2 15.0533 0.2 13.4C0.2 11.7067 1.18 10.26 3.14 9.06C3.23333 8.99333 3.26 8.91333 3.22 8.82C3.19333 8.78 3.16667 8.70667 3.14 8.6C2.75333 6.97333 2.37333 5.14 2 3.1C1.94667 2.79333 2.00667 2.52 2.18 2.28C2.36667 2.02667 2.61333 1.87333 2.92 1.82L4.58 1.58C4.88667 1.52667 5.16667 1.59333 5.42 1.78C5.67333 1.96667 5.83333 2.21333 5.9 2.52C6.20667 4.17333 6.54 5.73333 6.9 7.2C6.91333 7.28 6.97333 7.30667 7.08 7.28C8.64 6.72 10.58 6.17333 12.9 5.64C13.1933 5.57333 13.4667 5.62667 13.72 5.8C13.9867 5.97333 14.1533 6.21333 14.22 6.52L14.48 7.68C14.5467 7.98667 14.4933 8.27333 14.32 8.54C14.1467 8.80667 13.9067 8.97333 13.6 9.04C11.1333 9.61333 9.18 10.16 7.74 10.68C6.31333 11.2 5.36667 11.6667 4.9 12.08C4.43333 12.4933 4.2 12.9333 4.2 13.4C4.2 13.9467 4.46 14.3533 4.98 14.62C5.5 14.8733 6.37333 15 7.6 15C9.44 15 11.3333 14.86 13.28 14.58C13.5867 14.5267 13.86 14.5933 14.1 14.78C14.3533 14.9667 14.5 15.2133 14.54 15.52ZM36.62 11.92C36.74 12.6133 36.8 13.1733 36.8 13.6C36.8 15.28 36.2733 16.5 35.22 17.26C34.18 18.02 32.44 18.4 30 18.4C27.6133 18.4 25.9467 17.9867 25 17.16C24.0667 16.3467 23.6 14.8933 23.6 12.8C23.6 12.0667 23.6067 11.4867 23.62 11.06C23.62 10.9533 23.5667 10.9 23.46 10.9H20.74C20.4333 10.9 20.1667 10.7867 19.94 10.56C19.7133 10.3333 19.6 10.0667 19.6 9.76V8.84C19.6 8.53333 19.7133 8.26667 19.94 8.04C20.1667 7.81333 20.4333 7.7 20.74 7.7H23.6C23.7067 7.7 23.76 7.64667 23.76 7.54C23.76 7.42 23.7667 7.22667 23.78 6.96C23.8067 6.69333 23.8267 6.49333 23.84 6.36C23.84 6.25333 23.7867 6.2 23.68 6.2H21.34C21.0333 6.2 20.7667 6.08667 20.54 5.86C20.3133 5.63333 20.2 5.36667 20.2 5.06V4.14C20.2 3.83333 20.3133 3.56667 20.54 3.34C20.7667 3.11333 21.0333 3 21.34 3H23.88C24 3 24.06 2.94667 24.06 2.84L24.12 2.12C24.1333 1.8 24.26 1.53333 24.5 1.32C24.74 1.10667 25.02 1.00667 25.34 1.02L26.86 1.08C27.1667 1.09333 27.42 1.21333 27.62 1.44C27.8333 1.66667 27.9333 1.93333 27.92 2.24L27.86 2.84C27.86 2.94667 27.9133 3 28.02 3H33.06C33.3667 3 33.6333 3.11333 33.86 3.34C34.0867 3.56667 34.2 3.83333 34.2 4.14V5.06C34.2 5.36667 34.0867 5.63333 33.86 5.86C33.6333 6.08667 33.3667 6.2 33.06 6.2H27.82C27.7 6.2 27.64 6.25333 27.64 6.36C27.6267 6.62667 27.6067 7.01333 27.58 7.52C27.58 7.64 27.6333 7.7 27.74 7.7H31.46C31.7667 7.7 32.0333 7.81333 32.26 8.04C32.4867 8.26667 32.6 8.53333 32.6 8.84V9.76C32.6 10.0667 32.4867 10.3333 32.26 10.56C32.0333 10.7867 31.7667 10.9 31.46 10.9H27.6C27.48 10.9 27.42 10.9533 27.42 11.06C27.4067 11.4867 27.4 12.0667 27.4 12.8C27.4 13.76 27.5467 14.3667 27.84 14.62C28.1467 14.8733 28.8667 15 30 15C30.96 15 31.66 14.9533 32.1 14.86C32.54 14.7533 32.8333 14.5933 32.98 14.38C33.1267 14.1533 33.2 13.7933 33.2 13.3C33.2 13.18 33.18 12.9867 33.14 12.72C33.0867 12.4 33.14 12.1067 33.3 11.84C33.46 11.5733 33.6933 11.4067 34 11.34L35.3 11.06C35.6067 10.9933 35.8867 11.0467 36.14 11.22C36.4067 11.38 36.5667 11.6133 36.62 11.92ZM49.22 10.16C49.2333 10.12 49.2267 10.0867 49.2 10.06C49.1733 10.02 49.14 10 49.1 10C48.78 10 48.34 10.0267 47.78 10.08C47.66 10.1067 47.6 10.1667 47.6 10.26V12.46C47.6 12.4867 47.6133 12.5067 47.64 12.52C47.6667 12.5333 47.6867 12.5267 47.7 12.5C48.3 11.7933 48.8067 11.0133 49.22 10.16ZM43 13.2C43 14.0533 43.3467 14.52 44.04 14.6C44.0933 14.6133 44.1333 14.6 44.16 14.56C44.1867 14.52 44.2 14.4733 44.2 14.42V11.42C44.2 11.3133 44.1533 11.2933 44.06 11.36C43.3533 11.92 43 12.5333 43 13.2ZM49.2 6.8C51.5867 6.8 53.4133 7.32 54.68 8.36C55.96 9.4 56.6 10.8133 56.6 12.6C56.6 13.9867 56.18 15.2067 55.34 16.26C54.5 17.3 53.3467 18.0533 51.88 18.52C51.5867 18.6133 51.3 18.58 51.02 18.42C50.74 18.26 50.5533 18.0267 50.46 17.72L50.14 16.68C50.0467 16.3867 50.0667 16.1067 50.2 15.84C50.3467 15.56 50.5667 15.3533 50.86 15.22C51.5133 14.9133 52.0333 14.5267 52.42 14.06C52.8067 13.58 53 13.0933 53 12.6C53 12.0133 52.8733 11.5333 52.62 11.16C52.6067 11.1333 52.5733 11.12 52.52 11.12C52.48 11.12 52.4533 11.14 52.44 11.18C51.48 13.3133 50.2333 14.9533 48.7 16.1C47.1667 17.2333 45.5333 17.8 43.8 17.8C42.48 17.8 41.4133 17.42 40.6 16.66C39.8 15.9 39.4 14.88 39.4 13.6C39.4 12.2533 39.8 11.06 40.6 10.02C41.4133 8.98 42.5667 8.18 44.06 7.62C44.1533 7.58 44.2 7.50667 44.2 7.4V5.98C44.2 5.86 44.1467 5.8 44.04 5.8H41.54C41.2333 5.8 40.9667 5.68667 40.74 5.46C40.5133 5.23333 40.4 4.96667 40.4 4.66V3.94C40.4 3.63333 40.5133 3.36667 40.74 3.14C40.9667 2.91333 41.2333 2.8 41.54 2.8H44.04C44.1467 2.8 44.2 2.74 44.2 2.62V1.94C44.2 1.63333 44.3133 1.36667 44.54 1.14C44.7667 0.913332 45.0333 0.799999 45.34 0.799999H46.46C46.7667 0.799999 47.0333 0.913332 47.26 1.14C47.4867 1.36667 47.6 1.63333 47.6 1.94V2.62C47.6 2.74 47.66 2.8 47.78 2.8H54.46C54.7667 2.8 55.0333 2.91333 55.26 3.14C55.4867 3.36667 55.6 3.63333 55.6 3.94V4.66C55.6 4.96667 55.4867 5.23333 55.26 5.46C55.0333 5.68667 54.7667 5.8 54.46 5.8H47.78C47.66 5.8 47.6 5.86 47.6 5.98V6.7C47.6 6.80667 47.6533 6.86 47.76 6.86C48.2133 6.82 48.6933 6.8 49.2 6.8ZM69.8 2C71.5733 2 72.98 2.6 74.02 3.8C75.0733 4.98667 75.6 6.65333 75.6 8.8C75.6 11.9867 74.72 14.3467 72.96 15.88C71.2 17.4133 68.3867 18.2467 64.52 18.38C64.2 18.3933 63.9267 18.2867 63.7 18.06C63.4867 17.8467 63.3667 17.58 63.34 17.26L63.26 16.14C63.2467 15.8333 63.34 15.5667 63.54 15.34C63.7533 15.1133 64.0133 14.9933 64.32 14.98C67.08 14.8867 68.98 14.3867 70.02 13.48C71.0733 12.56 71.6 11 71.6 8.8C71.6 6.66667 70.8667 5.6 69.4 5.6C68.2933 5.6 67.3 6.07333 66.42 7.02C65.54 7.96667 64.9933 9.18 64.78 10.66C64.74 10.98 64.6067 11.2533 64.38 11.48C64.1533 11.6933 63.88 11.8 63.56 11.8H62.24C61.9333 11.8 61.6667 11.6867 61.44 11.46C61.2133 11.2333 61.1 10.9667 61.1 10.66V2.74C61.1 2.43333 61.2133 2.16667 61.44 1.94C61.6667 1.71333 61.9333 1.6 62.24 1.6H63.66C63.9667 1.6 64.2333 1.71333 64.46 1.94C64.6867 2.16667 64.8 2.43333 64.8 2.74V4.4L64.84 4.38C66.2667 2.79333 67.92 2 69.8 2ZM93.48 5.44C93.1867 5.57333 92.8933 5.58667 92.6 5.48C92.3067 5.37333 92.0867 5.18 91.94 4.9C91.8733 4.78 91.66 4.38667 91.3 3.72C91.1533 3.45333 91.1267 3.17333 91.22 2.88C91.3133 2.58667 91.5 2.36667 91.78 2.22H91.8C92.08 2.07333 92.3733 2.04667 92.68 2.14C92.9867 2.23333 93.2133 2.42 93.36 2.7C93.5067 2.96667 93.7267 3.38 94.02 3.94C94.1533 4.22 94.1667 4.50667 94.06 4.8C93.9533 5.09333 93.76 5.30667 93.48 5.44ZM95 1.52C95.28 1.37333 95.5733 1.34667 95.88 1.44C96.1867 1.52 96.4133 1.7 96.56 1.98C97 2.82 97.2267 3.25333 97.24 3.28C97.3867 3.56 97.4067 3.84667 97.3 4.14C97.2067 4.43333 97.02 4.64667 96.74 4.78L96.68 4.82C96.4 4.95333 96.1067 4.97333 95.8 4.88C95.5067 4.77333 95.2867 4.58 95.14 4.3C95.0733 4.16667 94.9667 3.96 94.82 3.68C94.6733 3.4 94.56 3.19333 94.48 3.06C94.3333 2.79333 94.3 2.50667 94.38 2.2C94.4733 1.89333 94.66 1.67333 94.94 1.54L95 1.52ZM86.96 4.2C87.7067 4.2 88.2533 4.2 88.6 4.2C88.9467 4.2 89.3467 4.24667 89.8 4.34C90.2667 4.42 90.5733 4.48667 90.72 4.54C90.88 4.59333 91.0733 4.76667 91.3 5.06C91.5267 5.35333 91.66 5.60667 91.7 5.82C91.74 6.03333 91.7933 6.44 91.86 7.04C91.9267 7.62667 91.96 8.15333 91.96 8.62C91.96 9.08667 91.96 9.81333 91.96 10.8C91.96 13.4533 91.6333 15.3533 90.98 16.5C90.34 17.6333 89.4 18.2 88.16 18.2C87.2667 18.2 86.1667 18.04 84.86 17.72C84.5533 17.64 84.32 17.46 84.16 17.18C84 16.9 83.96 16.6067 84.04 16.3L84.28 15.3C84.36 15.0067 84.5333 14.78 84.8 14.62C85.0667 14.46 85.3533 14.4133 85.66 14.48C86.5133 14.6933 87.08 14.8 87.36 14.8C87.8933 14.8 88.16 13.2667 88.16 10.2C88.16 8.81333 88.1067 8 88 7.76C87.9067 7.52 87.56 7.4 86.96 7.4H85.38C85.26 7.4 85.1867 7.45333 85.16 7.56C84.44 10.7867 83.5 14.04 82.34 17.32C82.2333 17.6267 82.0333 17.8467 81.74 17.98C81.46 18.1267 81.1733 18.1533 80.88 18.06L79.94 17.74C79.6467 17.6467 79.4267 17.46 79.28 17.18C79.1467 16.9133 79.1333 16.6267 79.24 16.32C80.2 13.4667 81.02 10.5533 81.7 7.58C81.7267 7.46 81.6867 7.4 81.58 7.4H80.5C80.1933 7.4 79.9267 7.28667 79.7 7.06C79.4733 6.83333 79.36 6.56667 79.36 6.26V5.34C79.36 5.03333 79.4733 4.76667 79.7 4.54C79.9267 4.31333 80.1933 4.2 80.5 4.2H82.24C82.3467 4.2 82.4133 4.14667 82.44 4.04C82.5333 3.57333 82.68 2.73333 82.88 1.52C82.9333 1.2 83.0867 0.939999 83.34 0.74C83.5933 0.526666 83.88 0.433332 84.2 0.46L85.22 0.54C85.5267 0.566666 85.78 0.699999 85.98 0.939999C86.18 1.16667 86.26 1.42667 86.22 1.72C86.1133 2.52 85.9933 3.29333 85.86 4.04C85.8333 4.14667 85.88 4.2 86 4.2H86.96ZM96.3 7.3C96.7667 8.87333 97.2333 10.6067 97.7 12.5C97.7667 12.7933 97.72 13.0733 97.56 13.34C97.4 13.6067 97.1667 13.7733 96.86 13.84L95.56 14.12C95.2533 14.1867 94.9667 14.14 94.7 13.98C94.4467 13.8067 94.28 13.56 94.2 13.24C93.7467 11.4 93.3 9.74 92.86 8.26C92.7667 7.96667 92.7933 7.68667 92.94 7.42C93.1 7.14 93.3333 6.95333 93.64 6.86L94.88 6.52C95.1733 6.42667 95.46 6.46 95.74 6.62C96.02 6.76667 96.2067 6.99333 96.3 7.3ZM115.06 16.48C115.1 16.8 115.027 17.08 114.84 17.32C114.653 17.5733 114.4 17.7267 114.08 17.78C112.213 18.06 110.187 18.2 108 18.2C103.067 18.2 100.6 16.4667 100.6 13C100.6 11.2667 101.52 9.72667 103.36 8.38C103.453 8.31333 103.487 8.22667 103.46 8.12C103.06 6.38667 102.707 4.64667 102.4 2.9C102.347 2.59333 102.407 2.32 102.58 2.08C102.767 1.82667 103.013 1.67333 103.32 1.62L104.98 1.38C105.287 1.32667 105.567 1.39333 105.82 1.58C106.073 1.76667 106.233 2.01333 106.3 2.32C106.607 3.89333 106.873 5.18667 107.1 6.2C107.127 6.32 107.193 6.35333 107.3 6.3C108.98 5.62 110.98 5.00667 113.3 4.46C113.593 4.39333 113.867 4.44667 114.12 4.62C114.387 4.78 114.553 5.01333 114.62 5.32L114.88 6.48C114.947 6.78667 114.893 7.08 114.72 7.36C114.547 7.62667 114.313 7.79333 114.02 7.86C110.913 8.60667 108.567 9.42667 106.98 10.32C105.393 11.2133 104.6 12.04 104.6 12.8C104.6 13.48 104.867 13.9867 105.4 14.32C105.933 14.64 106.8 14.8 108 14.8C109.84 14.8 111.733 14.66 113.68 14.38C113.987 14.3267 114.26 14.3933 114.5 14.58C114.753 14.7667 114.9 15.0133 114.94 15.32L115.06 16.48ZM129.5 6.4C131.58 6.4 133.167 6.80667 134.26 7.62C135.353 8.43333 135.9 9.56 135.9 11C135.9 15.04 132.413 17.4067 125.44 18.1C125.12 18.1267 124.833 18.04 124.58 17.84C124.34 17.6533 124.193 17.4 124.14 17.08L123.96 16.02C123.907 15.7133 123.973 15.44 124.16 15.2C124.36 14.9467 124.613 14.8 124.92 14.76C127.493 14.4267 129.333 13.9667 130.44 13.38C131.547 12.78 132.1 12.0533 132.1 11.2C132.1 10.7333 131.887 10.3867 131.46 10.16C131.033 9.92 130.313 9.8 129.3 9.8C127.727 9.8 125.293 10.1533 122 10.86C121.693 10.9267 121.407 10.88 121.14 10.72C120.873 10.5467 120.707 10.3067 120.64 10L120.36 8.9C120.293 8.59333 120.34 8.30667 120.5 8.04C120.66 7.76 120.893 7.58667 121.2 7.52C124.347 6.77333 127.113 6.4 129.5 6.4ZM124.44 1.32C127.053 1.58667 129.567 1.74 131.98 1.78C132.287 1.79333 132.547 1.91333 132.76 2.14C132.987 2.36667 133.1 2.63333 133.1 2.94V4.06C133.1 4.38 132.98 4.65333 132.74 4.88C132.513 5.09333 132.247 5.19333 131.94 5.18C129.34 5.11333 126.707 4.93333 124.04 4.64C123.733 4.61333 123.48 4.47333 123.28 4.22C123.08 3.96667 123 3.68667 123.04 3.38L123.16 2.32C123.2 2.01333 123.347 1.76667 123.6 1.58C123.853 1.38 124.133 1.29333 124.44 1.32ZM151.04 6.82C151.32 6.67333 151.613 6.64667 151.92 6.74C152.227 6.83333 152.453 7.02 152.6 7.3C152.747 7.56667 152.967 7.98 153.26 8.54C153.393 8.82 153.407 9.10667 153.3 9.4C153.193 9.69333 153 9.90667 152.72 10.04C152.427 10.1733 152.133 10.1867 151.84 10.08C151.547 9.97333 151.327 9.78 151.18 9.5C151.113 9.38 150.9 8.98667 150.54 8.32C150.393 8.05333 150.367 7.77333 150.46 7.48C150.553 7.18667 150.74 6.96667 151.02 6.82H151.04ZM155.8 6.58C156.24 7.42 156.467 7.85333 156.48 7.88C156.627 8.16 156.647 8.44667 156.54 8.74C156.447 9.03333 156.26 9.24667 155.98 9.38L155.92 9.42C155.64 9.55333 155.347 9.57333 155.04 9.48C154.747 9.37333 154.527 9.18 154.38 8.9C154.313 8.76667 154.207 8.56 154.06 8.28C153.913 8 153.8 7.79333 153.72 7.66C153.573 7.39333 153.54 7.10667 153.62 6.8C153.713 6.49333 153.9 6.27333 154.18 6.14L154.24 6.12C154.52 5.97333 154.813 5.94667 155.12 6.04C155.427 6.12 155.653 6.3 155.8 6.58ZM154 3.96C154 4.26667 153.887 4.53333 153.66 4.76C153.433 4.98667 153.167 5.1 152.86 5.1H142.94C142.633 5.1 142.367 4.98667 142.14 4.76C141.913 4.53333 141.8 4.26667 141.8 3.96V2.94C141.8 2.63333 141.913 2.36667 142.14 2.14C142.367 1.91333 142.633 1.8 142.94 1.8H152.86C153.167 1.8 153.433 1.91333 153.66 2.14C153.887 2.36667 154 2.63333 154 2.94V3.96ZM154.72 14.92L154.98 16.08C155.047 16.3867 154.993 16.68 154.82 16.96C154.647 17.2267 154.407 17.3933 154.1 17.46C151.78 17.9533 149.68 18.2 147.8 18.2C145.347 18.2 143.433 17.78 142.06 16.94C140.687 16.1 140 14.9867 140 13.6C140 12.8933 140.187 12.1867 140.56 11.48C140.933 10.76 141.58 9.92667 142.5 8.98C142.727 8.75333 143 8.63333 143.32 8.62C143.653 8.59333 143.953 8.67333 144.22 8.86L145.18 9.54C145.42 9.71333 145.547 9.94667 145.56 10.24C145.587 10.5333 145.5 10.7867 145.3 11C144.367 11.9867 143.9 12.72 143.9 13.2C143.9 13.68 144.22 14.0667 144.86 14.36C145.513 14.6533 146.493 14.8 147.8 14.8C149.387 14.8 151.253 14.56 153.4 14.08C153.707 14.0133 153.987 14.0667 154.24 14.24C154.507 14.4 154.667 14.6267 154.72 14.92ZM176.76 0.939999C176.827 1.07333 176.92 1.26667 177.04 1.52C177.173 1.77333 177.267 1.95333 177.32 2.06C177.453 2.32667 177.473 2.59333 177.38 2.86C177.287 3.12667 177.107 3.32667 176.84 3.46C176.573 3.59333 176.3 3.61333 176.02 3.52C175.753 3.42667 175.547 3.24667 175.4 2.98C175.28 2.74 175.087 2.38 174.82 1.9C174.687 1.63333 174.66 1.36667 174.74 1.1C174.833 0.819999 175.013 0.613333 175.28 0.479999C175.547 0.346666 175.827 0.326666 176.12 0.419999C176.413 0.513333 176.627 0.686666 176.76 0.939999ZM174.76 3.22C175.067 3.20667 175.333 3.30667 175.56 3.52C175.8 3.73333 175.927 3.99333 175.94 4.3L175.96 5.22C175.973 5.52667 175.873 5.8 175.66 6.04C175.447 6.28 175.187 6.40667 174.88 6.42C174.853 6.42 173.68 6.46 171.36 6.54C171.253 6.54 171.213 6.6 171.24 6.72C171.547 7.74667 172.04 8.85333 172.72 10.04C172.867 10.3067 172.893 10.58 172.8 10.86C172.707 11.1267 172.527 11.32 172.26 11.44L170.84 12.06C170.213 12.3267 169.533 12.3067 168.8 12C167.867 11.6 166.9 11.4 165.9 11.4C165.353 11.4 164.913 11.5467 164.58 11.84C164.26 12.1333 164.1 12.52 164.1 13C164.1 13.6933 164.433 14.2333 165.1 14.62C165.767 15.0067 166.767 15.2 168.1 15.2C169.02 15.2 170.313 15.0667 171.98 14.8C172.287 14.7467 172.567 14.8133 172.82 15C173.087 15.1733 173.247 15.4133 173.3 15.72L173.5 16.68C173.567 16.9867 173.507 17.2667 173.32 17.52C173.147 17.7867 172.907 17.9467 172.6 18C171 18.2667 169.5 18.4 168.1 18.4C165.607 18.4 163.68 17.9067 162.32 16.92C160.973 15.92 160.3 14.5467 160.3 12.8C160.3 11.4133 160.787 10.3 161.76 9.46C162.733 8.62 164.047 8.2 165.7 8.2C166.447 8.2 167.233 8.3 168.06 8.5H168.1V8.44C167.873 7.88 167.7 7.34667 167.58 6.84C167.553 6.72 167.487 6.66 167.38 6.66C164.873 6.72667 162.627 6.76 160.64 6.76C160.32 6.76 160.047 6.64667 159.82 6.42C159.607 6.19333 159.5 5.92667 159.5 5.62V4.7C159.5 4.39333 159.607 4.12667 159.82 3.9C160.047 3.67333 160.313 3.56 160.62 3.56C162.007 3.56 164.1 3.53333 166.9 3.48C166.98 3.48 167.02 3.42 167.02 3.3C167.007 2.99333 166.987 2.67333 166.96 2.34C166.947 2.02 167.04 1.74667 167.24 1.52C167.453 1.29333 167.72 1.16667 168.04 1.14L169.36 1.06C169.667 1.04667 169.933 1.14667 170.16 1.36C170.4 1.57333 170.533 1.83333 170.56 2.14C170.573 2.38 170.593 2.72667 170.62 3.18C170.62 3.3 170.68 3.36 170.8 3.36C170.96 3.36 171.2 3.35333 171.52 3.34C171.853 3.32667 172.1 3.32 172.26 3.32C172.3 3.32 172.327 3.3 172.34 3.26C172.367 3.22 172.367 3.18667 172.34 3.16C172.3 3.08 172.22 2.92667 172.1 2.7C171.98 2.46 171.887 2.28 171.82 2.16C171.687 1.90667 171.66 1.64667 171.74 1.38C171.833 1.1 172.007 0.893332 172.26 0.759999C172.527 0.626666 172.793 0.606666 173.06 0.699999C173.34 0.793333 173.553 0.973333 173.7 1.24C173.767 1.36 173.86 1.54 173.98 1.78C174.1 2.00667 174.193 2.18 174.26 2.3C174.38 2.55333 174.4 2.80667 174.32 3.06C174.293 3.16667 174.32 3.22 174.4 3.22H174.76ZM192.8 2.92C193.12 2.82667 193.427 2.84667 193.72 2.98C194.013 3.11333 194.22 3.32667 194.34 3.62C195.713 6.95333 196.46 10.7 196.58 14.86C196.593 15.1667 196.487 15.4333 196.26 15.66C196.033 15.8867 195.767 16 195.46 16H193.94C193.633 16 193.367 15.8933 193.14 15.68C192.913 15.4533 192.793 15.1867 192.78 14.88C192.66 11.2933 192.007 7.88667 190.82 4.66C190.713 4.36667 190.727 4.08667 190.86 3.82C190.993 3.54 191.207 3.36 191.5 3.28L192.8 2.92ZM189.74 11.4C190.033 11.5067 190.247 11.7067 190.38 12C190.513 12.28 190.52 12.5667 190.4 12.86C189.693 14.5533 188.827 15.8667 187.8 16.8C186.787 17.7333 185.787 18.2 184.8 18.2C183.573 18.2 182.433 17.4067 181.38 15.82C180.327 14.2333 179.8 12.2933 179.8 10C179.8 7.94667 180.06 5.91333 180.58 3.9C180.66 3.58 180.833 3.32667 181.1 3.14C181.38 2.95333 181.687 2.88 182.02 2.92L183.48 3.08C183.773 3.10667 184 3.24667 184.16 3.5C184.333 3.74 184.387 4.00667 184.32 4.3C183.84 6.32667 183.6 8.22667 183.6 10C183.6 10.6267 183.647 11.2267 183.74 11.8C183.847 12.36 183.98 12.8267 184.14 13.2C184.3 13.56 184.46 13.8533 184.62 14.08C184.793 14.2933 184.953 14.4 185.1 14.4C185.313 14.4 185.607 14.1667 185.98 13.7C186.353 13.22 186.747 12.5267 187.16 11.62C187.293 11.34 187.5 11.14 187.78 11.02C188.073 10.9 188.367 10.8933 188.66 11L189.74 11.4ZM205.8 15.2C206.48 15.2 206.933 15.1267 207.16 14.98C207.4 14.8333 207.54 14.5133 207.58 14.02C207.58 13.9 207.54 13.8333 207.46 13.82C206.98 13.6733 206.56 13.6 206.2 13.6C205.133 13.6 204.6 13.8667 204.6 14.4C204.6 14.9333 205 15.2 205.8 15.2ZM214.86 2.6C215.167 2.6 215.433 2.71333 215.66 2.94C215.887 3.16667 216 3.43333 216 3.74V4.66C216 4.96667 215.887 5.23333 215.66 5.46C215.433 5.68667 215.167 5.8 214.86 5.8H211.38C211.26 5.8 211.2 5.86 211.2 5.98V6.44C211.2 6.54667 211.26 6.6 211.38 6.6H214.06C214.367 6.6 214.633 6.71333 214.86 6.94C215.087 7.16667 215.2 7.43333 215.2 7.74V8.56C215.2 8.86667 215.087 9.13333 214.86 9.36C214.633 9.58667 214.367 9.7 214.06 9.7H211.38C211.26 9.7 211.2 9.76 211.2 9.88V11.96C211.2 12.08 211.253 12.1733 211.36 12.24C212.467 12.9333 213.6 13.8 214.76 14.84C214.987 15.0533 215.107 15.32 215.12 15.64C215.147 15.9467 215.053 16.2133 214.84 16.44L214.16 17.16C213.947 17.3867 213.687 17.5067 213.38 17.52C213.073 17.5467 212.807 17.4533 212.58 17.24C212.073 16.7733 211.56 16.3333 211.04 15.92C210.96 15.84 210.887 15.86 210.82 15.98C210.5 16.8333 209.933 17.4467 209.12 17.82C208.307 18.2067 207.2 18.4 205.8 18.4C204.293 18.4 203.113 18.0467 202.26 17.34C201.42 16.6467 201 15.6667 201 14.4C201 13.1733 201.413 12.22 202.24 11.54C203.067 10.8467 204.253 10.5 205.8 10.5C206.387 10.5 206.933 10.5467 207.44 10.64C207.547 10.6667 207.6 10.62 207.6 10.5V9.88C207.6 9.76 207.547 9.7 207.44 9.7H201.94C201.633 9.7 201.367 9.58667 201.14 9.36C200.913 9.13333 200.8 8.86667 200.8 8.56V7.74C200.8 7.43333 200.913 7.16667 201.14 6.94C201.367 6.71333 201.633 6.6 201.94 6.6H207.44C207.547 6.6 207.6 6.54667 207.6 6.44V5.98C207.6 5.86 207.547 5.8 207.44 5.8H201.14C200.833 5.8 200.567 5.68667 200.34 5.46C200.113 5.23333 200 4.96667 200 4.66V3.74C200 3.43333 200.113 3.16667 200.34 2.94C200.567 2.71333 200.833 2.6 201.14 2.6H207.44C207.547 2.6 207.6 2.54 207.6 2.42V2.14C207.6 1.83333 207.713 1.56667 207.94 1.34C208.167 1.11333 208.433 1 208.74 1H210.06C210.367 1 210.633 1.11333 210.86 1.34C211.087 1.56667 211.2 1.83333 211.2 2.14V2.42C211.2 2.54 211.26 2.6 211.38 2.6H214.86ZM225.88 10.86C226.147 11.0867 226.487 11.2 226.9 11.2C227.313 11.2 227.647 11.0867 227.9 10.86C228.167 10.6333 228.3 10.3467 228.3 10C228.3 9.65333 228.167 9.36667 227.9 9.14C227.647 8.91333 227.313 8.8 226.9 8.8C226.487 8.8 226.147 8.91333 225.88 9.14C225.627 9.36667 225.5 9.65333 225.5 10C225.5 10.3467 225.627 10.6333 225.88 10.86ZM235.66 2.4C235.967 2.4 236.233 2.51333 236.46 2.74C236.687 2.96667 236.8 3.23333 236.8 3.54V4.26C236.8 4.56667 236.687 4.83333 236.46 5.06C236.233 5.28667 235.967 5.4 235.66 5.4H231.76C231.653 5.4 231.6 5.46 231.6 5.58V8.84C231.6 8.90667 231.627 9.00667 231.68 9.14C232.093 9.99333 232.3 10.88 232.3 11.8C232.3 13.76 231.747 15.2533 230.64 16.28C229.533 17.2933 227.693 17.96 225.12 18.28C224.8 18.32 224.513 18.24 224.26 18.04C224.02 17.8533 223.867 17.6 223.8 17.28L223.6 16.32C223.547 16.0267 223.613 15.76 223.8 15.52C223.987 15.2667 224.233 15.1267 224.54 15.1C225.553 14.9933 226.32 14.88 226.84 14.76C227.373 14.64 227.747 14.5067 227.96 14.36C228.173 14.2133 228.34 14.0133 228.46 13.76C228.473 13.7467 228.48 13.7267 228.48 13.7C228.48 13.6733 228.487 13.6533 228.5 13.64V13.6H228.46C227.78 13.8667 227.093 14 226.4 14C225.093 14 224.033 13.6333 223.22 12.9C222.407 12.1667 222 11.2 222 10C222 8.78667 222.413 7.82 223.24 7.1C224.067 6.36667 225.187 6 226.6 6C227.013 6 227.46 6.06667 227.94 6.2H227.98C227.993 6.2 228 6.19333 228 6.18V5.58C228 5.46 227.94 5.4 227.82 5.4H220.34C220.033 5.4 219.767 5.28667 219.54 5.06C219.313 4.83333 219.2 4.56667 219.2 4.26V3.54C219.2 3.23333 219.313 2.96667 219.54 2.74C219.767 2.51333 220.033 2.4 220.34 2.4H227.82C227.94 2.4 228 2.34 228 2.22V1.74C228 1.43333 228.113 1.16667 228.34 0.939999C228.567 0.713332 228.833 0.599999 229.14 0.599999H230.46C230.767 0.599999 231.033 0.713332 231.26 0.939999C231.487 1.16667 231.6 1.43333 231.6 1.74V2.22C231.6 2.34 231.653 2.4 231.76 2.4H235.66ZM241.62 16.18C241.847 16.3933 242.107 16.5 242.4 16.5C242.693 16.5 242.947 16.3933 243.16 16.18C243.387 15.9533 243.5 15.6933 243.5 15.4C243.5 15.1067 243.387 14.8533 243.16 14.64C242.947 14.4133 242.693 14.3 242.4 14.3C242.107 14.3 241.847 14.4133 241.62 14.64C241.407 14.8533 241.3 15.1067 241.3 15.4C241.3 15.6933 241.407 15.9533 241.62 16.18ZM240 13C240.667 12.3333 241.467 12 242.4 12C243.333 12 244.133 12.3333 244.8 13C245.467 13.6667 245.8 14.4667 245.8 15.4C245.8 16.3333 245.467 17.1333 244.8 17.8C244.133 18.4667 243.333 18.8 242.4 18.8C241.467 18.8 240.667 18.4667 240 17.8C239.333 17.1333 239 16.3333 239 15.4C239 14.4667 239.333 13.6667 240 13Z" fill="#FFC024"/>
</svg>
